<svg width="96" height="96" viewBox="0 0 96 96" fill="none" xmlns="http://www.w3.org/2000/svg">
<path d="M93.4517 32.9455L63.0531 2.54725C61.4121 0.906436 59.2238 0.00268555 56.8909 0.00268555C54.5582 0.00268555 52.3697 0.906061 50.7287 2.54687L2.54456 50.7312C0.90375 52.3722 0 54.5603 0 56.8932C0 59.2261 0.90375 61.4146 2.54456 63.0552L6.29306 66.8037C6.29344 66.8039 6.29363 66.8043 6.294 66.8046C6.29438 66.805 6.29475 66.8054 6.29513 66.8058L31.4876 91.9983H27.9994C26.895 91.9983 25.9995 92.8936 25.9995 93.9981C25.9995 95.1025 26.895 95.998 27.9994 95.998H39.0973C39.0999 95.998 39.1024 95.9982 39.105 95.9982C39.1076 95.9982 39.1101 95.998 39.1127 95.998L67.9976 95.9984C69.102 95.9984 69.9975 95.1029 69.9975 93.9985C69.9975 92.8939 69.102 91.9986 67.9976 91.9986L46.7231 91.9983L93.4519 45.2695C96.8494 41.8716 96.8494 36.343 93.4517 32.9455ZM90.6234 42.4413L42.4389 90.6258C41.5553 91.5093 40.374 91.9964 39.1123 91.9983H39.0971C37.8358 91.9962 36.6549 91.5093 35.7716 90.6258L10.5366 65.3905L56.8106 19.1161C57.5916 18.3351 57.5916 17.0687 56.8106 16.2878C56.0295 15.5069 54.7635 15.5069 53.9822 16.288L7.70813 62.5624L5.37263 60.2269C4.48744 59.3418 3.99994 58.1579 3.99994 56.8934C3.99994 55.6289 4.48744 54.4448 5.37281 53.5594L53.5569 5.37531C54.4423 4.49012 55.6264 4.00262 56.8909 4.00262C58.1554 4.00262 59.3394 4.49012 60.2248 5.3755L71.0441 16.1946L24.7695 62.4696C23.9886 63.2504 23.9886 64.5168 24.7695 65.2981C25.1601 65.6884 25.6719 65.8836 26.1836 65.8836C26.6953 65.8836 27.2072 65.6883 27.5978 65.2979L73.8724 19.0231L90.6234 35.7736C92.4615 37.6118 92.4613 40.603 90.6234 42.4413Z" fill="#226AE2"/>
<path d="M49.2752 57.7619C48.4943 56.981 47.2283 56.9812 46.4468 57.7619L30.7091 73.4993C29.9282 74.2803 29.9282 75.5465 30.7091 76.3278C31.0997 76.7183 31.6116 76.9135 32.1233 76.9135C32.6349 76.9135 33.1468 76.7181 33.5374 76.3278L49.275 60.5903C50.0561 59.809 50.0561 58.5428 49.2752 57.7619Z" fill="#226AE2"/>
<path d="M42.8204 72.7013L36.3657 79.156C35.5847 79.937 35.5847 81.2033 36.3657 81.9845C36.7562 82.3748 37.2681 82.5702 37.7798 82.5702C38.2919 82.5702 38.8034 82.3748 39.1939 81.9845L45.6486 75.5298C46.4295 74.7488 46.4295 73.4824 45.6486 72.7013C44.8677 71.9202 43.6019 71.9202 42.8204 72.7013Z" fill="#226AE2"/>
<path d="M48.7602 66.7621L47.9117 67.6104C47.1306 68.3913 47.1306 69.6575 47.9115 70.4388C48.3019 70.8294 48.814 71.0247 49.3257 71.0247C49.8374 71.0247 50.3492 70.8294 50.7396 70.4388L51.588 69.5905C52.3692 68.8096 52.3692 67.5434 51.5882 66.7623C50.8077 65.9814 49.5411 65.9812 48.7602 66.7621Z" fill="#226AE2"/>
<path d="M76.3263 30.7112C75.9513 30.3362 75.4426 30.1255 74.9121 30.1255C74.3817 30.1255 73.8732 30.3362 73.498 30.7112L65.0127 39.1964C64.6377 39.5715 64.4269 40.08 64.4269 40.6105C64.4269 41.1409 64.6377 41.6496 65.0127 42.0246L70.6696 47.6809C71.0601 48.0715 71.572 48.2667 72.0837 48.2667C72.5958 48.2667 73.1073 48.0713 73.4978 47.6809L81.9828 39.1962C82.7637 38.4152 82.7637 37.1489 81.9828 36.3679L76.3263 30.7112ZM72.0835 43.4387L69.2551 40.6105L74.9119 34.9538L77.7402 37.7822L72.0835 43.4387Z" fill="#226AE2"/>
<path d="M60.0635 15.0349C60.5756 15.0349 61.0874 14.8395 61.4778 14.4488L62.3262 13.6C63.107 12.8188 63.1068 11.5525 62.3257 10.7717C61.5447 9.99095 60.2782 9.99114 59.4974 10.7723L58.649 11.6211C57.8683 12.4022 57.8684 13.6686 58.6496 14.4493C59.0401 14.8399 59.5516 15.0349 60.0635 15.0349Z" fill="#226AE2"/>
<path d="M20.1027 67.1356L19.2543 67.9841C18.4733 68.7648 18.4733 70.0312 19.2543 70.8125C19.6448 71.2029 20.1567 71.3981 20.6684 71.3981C21.1801 71.3981 21.692 71.2029 22.0825 70.8125L22.931 69.9641C23.7119 69.183 23.7119 67.9166 22.931 67.1356C22.1498 66.3545 20.8838 66.3545 20.1027 67.1356Z" fill="#226AE2"/>
</svg>
