<svg width="28" height="32" viewBox="0 0 28 32" fill="none" xmlns="http://www.w3.org/2000/svg">
<path fill-rule="evenodd" clip-rule="evenodd" d="M3.28 0H24.72C26.528 0 28 1.472 28 3.296V32L24.56 28.96L22.624 27.168L20.576 25.264L21.424 28.224H3.28C1.472 28.224 0 26.752 0 24.928V3.296C0 1.472 1.472 0 3.28 0ZM17.4881 19.6002C17.9681 20.2082 18.5441 20.8962 18.5441 20.8962C22.0801 20.7842 23.4401 18.4642 23.4401 18.4642C23.4401 13.3122 21.1361 9.13618 21.1361 9.13618C18.8321 7.40819 16.6401 7.45619 16.6401 7.45619L16.4161 7.71219C19.1361 8.54419 20.4001 9.74418 20.4001 9.74418C18.7361 8.83219 17.1041 8.38419 15.5841 8.20819C14.4321 8.08018 13.3281 8.11219 12.3521 8.24019C12.2683 8.24019 12.1967 8.25238 12.116 8.26612L12.0801 8.27219C11.5201 8.32019 10.1601 8.52818 8.44812 9.28018C7.85612 9.55219 7.50412 9.74418 7.50412 9.74418C7.50412 9.74418 8.83212 8.48019 11.7121 7.64819L11.5521 7.45619C11.5521 7.45619 9.36012 7.40819 7.05612 9.13618C7.05612 9.13618 4.75212 13.3122 4.75212 18.4642C4.75212 18.4642 6.09612 20.7842 9.63212 20.8962C9.63212 20.8962 10.2241 20.1762 10.7041 19.5682C8.67212 18.9602 7.90412 17.6802 7.90412 17.6802C7.90412 17.6802 8.06412 17.7922 8.35212 17.9522C8.36812 17.9682 8.38412 17.9842 8.41612 18.0002C8.44012 18.0162 8.46412 18.0282 8.48812 18.0402L8.48814 18.0402C8.51214 18.0522 8.53613 18.0642 8.56012 18.0802C8.96012 18.3042 9.36012 18.4802 9.72812 18.6242C10.3841 18.8802 11.1681 19.1362 12.0801 19.3122C13.2801 19.5362 14.6881 19.6162 16.2241 19.3282C16.9761 19.2002 17.7441 18.9762 18.5441 18.6402C19.1041 18.4322 19.7281 18.1282 20.3841 17.6962C20.3841 17.6962 19.5841 19.0082 17.4881 19.6002ZM9.93538 15.5429C9.93538 14.538 10.6497 13.7143 11.5545 13.7143C12.4593 13.7143 13.1895 14.538 13.1737 15.5429C13.1737 16.5478 12.4593 17.3715 11.5545 17.3715C10.6656 17.3715 9.93538 16.5478 9.93538 15.5429ZM17.3486 13.7143C16.4437 13.7143 15.7294 14.538 15.7294 15.5429C15.7294 16.5478 16.4596 17.3715 17.3486 17.3715C18.2534 17.3715 18.9677 16.5478 18.9677 15.5429C18.9677 14.538 18.2534 13.7143 17.3486 13.7143Z" fill="#DADADA"/>
</svg>
