<svg width="104" height="117" viewBox="0 0 104 117" fill="none" xmlns="http://www.w3.org/2000/svg">
<path fill-rule="evenodd" clip-rule="evenodd" d="M12.1828 0H91.8171C98.5325 0 104 5.35414 104 11.9886V116.394L91.2228 105.337L84.032 98.8187L76.4251 91.8933L79.5748 102.66H12.1828C5.46742 102.66 0 97.3056 0 90.6711V11.9886C0 5.35414 5.46742 0 12.1828 0ZM64.9557 71.2927C66.7385 73.5042 68.878 76.0067 68.878 76.0067C82.0117 75.5993 87.0631 67.1607 87.0631 67.1607C87.0631 48.4212 78.5054 33.2318 78.5054 33.2318C69.9477 26.9465 61.806 27.1211 61.806 27.1211L60.974 28.0522C71.0768 31.0785 75.7717 35.4433 75.7717 35.4433C69.5911 32.126 63.5294 30.4965 57.8837 29.8564C53.6048 29.3908 49.5043 29.5072 45.8791 29.9727C45.5678 29.9727 45.3019 30.0171 45.0021 30.0671C44.9744 30.0717 44.9465 30.0764 44.9182 30.081C44.9019 30.0837 44.8854 30.0864 44.8688 30.0891C42.7888 30.2637 37.7374 31.0203 31.3786 33.7556C29.1797 34.7449 27.8723 35.4433 27.8723 35.4433C27.8723 35.4433 32.8048 30.8457 43.502 27.8195L42.9077 27.1211C42.9077 27.1211 34.766 26.9465 26.2083 33.2318C26.2083 33.2318 17.6506 48.4212 17.6506 67.1607C17.6506 67.1607 22.6426 75.5993 35.7763 76.0067C35.7763 76.0067 37.9751 73.3878 39.758 71.1763C32.2106 68.9648 29.358 64.3091 29.358 64.3091C29.358 64.3091 29.9523 64.7165 31.022 65.2984C31.0814 65.3566 31.1409 65.4148 31.2597 65.473C31.3489 65.5312 31.438 65.5749 31.5271 65.6185C31.6163 65.6622 31.7054 65.7058 31.7946 65.764C33.2803 66.5788 34.766 67.2189 36.1329 67.7427C38.5694 68.6739 41.4814 69.605 44.8688 70.2452C49.326 71.0599 54.5557 71.3509 60.2608 70.3034C63.054 69.8378 65.9065 69.023 68.878 67.8009C70.958 67.0443 73.2757 65.9386 75.7122 64.3673C75.7122 64.3673 72.7408 69.1394 64.9557 71.2927ZM36.903 56.5349C36.903 52.8798 39.5562 49.8838 42.917 49.8838C46.2777 49.8838 48.9899 52.8798 48.9309 56.5349C48.9309 60.19 46.2777 63.186 42.917 63.186C39.6152 63.186 36.903 60.19 36.903 56.5349ZM64.4375 49.8838C61.0767 49.8838 58.4235 52.8798 58.4235 56.5349C58.4235 60.19 61.1357 63.186 64.4375 63.186C67.7982 63.186 70.4514 60.19 70.4514 56.5349C70.4514 52.8798 67.7982 49.8838 64.4375 49.8838Z" fill="white"/>
</svg>
