<svg width="28" height="28" viewBox="0 0 28 28" fill="none" xmlns="http://www.w3.org/2000/svg">
<path fill-rule="evenodd" clip-rule="evenodd" d="M3 0C1.34315 0 0 1.34315 0 3V25C0 26.6569 1.34315 28 3 28H14.2771V17.38H10.5V13.5871H14.2771L14.1955 10.9033C14.1955 7.35618 16.8181 5.25 19.9101 5.25C21.1659 5.25 21.9176 5.36729 22.3433 5.4337C22.4196 5.4456 22.4854 5.45587 22.5417 5.46354V9.05425L19.9196 9.05349C18.2382 9.05349 17.9239 9.90688 17.9239 11.1069L18.0539 13.5871H22.5859L21.8302 17.38H18.0539V28H25C26.6569 28 28 26.6569 28 25V3C28 1.34315 26.6569 0 25 0H3Z" fill="#DADADA"/>
</svg>
