<svg width="28" height="28" viewBox="0 0 28 28" fill="none" xmlns="http://www.w3.org/2000/svg">
<path fill-rule="evenodd" clip-rule="evenodd" d="M19.6586 0H8.34135C3.74191 0 0 3.74191 0 8.34135V19.6586C0 24.2581 3.74191 28 8.34135 28H19.6586C24.2581 28 28 24.2581 28 19.6586V8.34135C27.9999 3.74191 24.258 0 19.6586 0ZM14 6.75829C10.0068 6.75829 6.75818 10.0069 6.75818 14C6.75818 17.9931 10.0068 21.2418 14 21.2418C17.9931 21.2418 21.2418 17.9932 21.2418 14C21.2418 10.0069 17.9931 6.75829 14 6.75829ZM14 18.4251C11.5561 18.4251 9.57498 16.444 9.57498 14.0001C9.57498 11.5562 11.5561 9.57508 14 9.57508C16.4439 9.57508 18.425 11.5562 18.425 14.0001C18.425 16.4439 16.4438 18.4251 14 18.4251ZM22.9911 6.81246C22.9911 7.77083 22.2142 8.54774 21.2558 8.54774C20.2974 8.54774 19.5205 7.77083 19.5205 6.81246C19.5205 5.85409 20.2974 5.07718 21.2558 5.07718C22.2142 5.07718 22.9911 5.85409 22.9911 6.81246Z" fill="#DADADA"/>
</svg>
