<svg width="104" height="82" viewBox="0 0 104 82" fill="none" xmlns="http://www.w3.org/2000/svg">
<path d="M94.7135 81.857C97.0513 81.857 99.0769 81.0851 100.799 79.561L71.3341 50.095C70.6271 50.6012 69.9419 51.0934 69.2947 51.5615C67.0897 53.1861 65.3 54.4538 63.9258 55.3622C62.5518 56.2727 60.7237 57.2008 58.4416 58.1482C56.158 59.0969 54.0306 59.5697 52.0571 59.5697H51.9993H51.9415C49.9678 59.5697 47.8404 59.0971 45.557 58.1482C43.2737 57.2008 41.4455 56.2727 40.0728 55.3622C38.6988 54.4538 36.9101 53.1863 34.704 51.5615C34.0892 51.1108 33.4074 50.6163 32.6702 50.087L3.19969 79.561C4.92152 81.0851 6.94848 81.857 9.28605 81.857H94.7135Z" fill="white"/>
<path d="M5.86223 31.5403C3.6574 30.0704 1.70219 28.3869 0 26.4906V71.3207L25.9702 45.3505C20.7747 41.7233 14.0805 37.1252 5.86223 31.5403Z" fill="white"/>
<path d="M98.1965 31.5403C90.2916 36.8907 83.5731 41.4967 78.0401 45.3609L104 71.3218V26.4906C102.336 28.3488 100.401 30.0311 98.1965 31.5403Z" fill="white"/>
<path d="M94.7135 0.142578H9.28621C6.3059 0.142578 4.0146 1.14898 2.40946 3.1597C0.802993 5.17137 0.00108337 7.68718 0.00108337 10.7043C0.00108337 13.1414 1.06526 15.782 3.19267 18.6269C5.32009 21.4707 7.58382 23.7044 9.98276 25.3292C11.2979 26.2584 15.2638 29.0155 21.8806 33.5996C25.4524 36.0748 28.5587 38.2323 31.228 40.094C33.5032 41.6793 35.4654 43.0522 37.0855 44.1915C37.2715 44.322 37.564 44.5312 37.9522 44.8088C38.3704 45.1092 38.8997 45.4904 39.5526 45.9619C40.8099 46.8713 41.8545 47.6063 42.6864 48.1679C43.5172 48.7296 44.5238 49.357 45.7047 50.0538C46.8846 50.7496 47.9975 51.2728 49.042 51.6208C50.0867 51.9686 51.0539 52.143 51.9436 52.143H52.0014H52.0591C52.9487 52.143 53.916 51.9686 54.9609 51.6208C56.0052 51.2728 57.1172 50.7507 58.2981 50.0538C59.4778 49.357 60.4831 48.7283 61.3165 48.1679C62.1484 47.6063 63.193 46.8714 64.4505 45.9619C65.1021 45.4904 65.6314 45.109 66.0496 44.8097C66.438 44.531 66.7303 44.3232 66.9174 44.1915C68.1795 43.3134 70.1462 41.9461 72.7904 40.1101C77.6019 36.767 84.6878 31.8466 94.0781 25.3292C96.9023 23.3566 99.2618 20.9762 101.158 18.1913C103.051 15.4064 104 12.4852 104 9.42865C104 6.87488 103.08 4.68969 101.244 2.86968C99.4053 1.05193 97.2284 0.142578 94.7135 0.142578Z" fill="white"/>
</svg>
