<svg width="94" height="96" viewBox="0 0 94 96" fill="none" xmlns="http://www.w3.org/2000/svg">
<path d="M91.6706 17.2746C89.637 14.7226 86.5993 13.2588 83.3367 13.2588H74.7737V10.9674H75.6441C78.6677 10.9674 81.1278 8.50747 81.1278 5.4837C81.1274 2.45993 78.6675 0 75.6439 0H18.356C15.3322 0 12.8723 2.45993 12.8723 5.4837C12.8723 8.50728 15.3322 10.9674 18.3558 10.9674H19.2262V13.2588H10.6632C7.4006 13.2588 4.36293 14.7226 2.3293 17.2746C0.303562 19.8168 -0.442705 23.0888 0.281579 26.2514C1.7185 32.5276 4.41216 37.9684 8.07153 41.9859C12.0097 46.3093 17.0271 49.0704 22.9875 50.2091C26.8415 56.8214 33.3474 61.7054 41.0374 63.3943C40.4689 78.3821 37.3125 82.0278 36.539 82.6993H33.67C27.5248 82.6993 22.0911 87.1959 19.8265 94.1548C19.5252 95.0811 20.2496 96 21.2043 96H54.2239C55.0166 96 55.6563 95.3456 55.6323 94.5475C55.6092 93.7762 54.9363 93.1818 54.1647 93.1818H23.2217C25.3649 88.468 29.3119 85.5177 33.6698 85.5177H60.3299C64.6878 85.5177 68.6348 88.468 70.7778 93.1818H60.0093C59.2311 93.1818 58.6002 93.8127 58.6002 94.5909C58.6002 95.3691 59.2311 96 60.0093 96H72.8332C73.8023 96 74.4595 95.0303 74.1627 94.1227C71.8921 87.1822 66.4653 82.6995 60.3299 82.6995H57.4609C56.6874 82.028 53.531 78.3823 52.9625 63.3945C60.6525 61.7054 67.1584 56.8216 71.0124 50.2093C76.9728 49.0706 81.9902 46.3094 85.9282 41.9861C86.4522 41.4108 86.4107 40.5195 85.8354 39.9955C85.2603 39.4717 84.3689 39.5132 83.8448 40.0885C80.8109 43.4193 77.0495 45.7135 72.6403 46.9387C73.1746 45.6594 73.6154 44.3316 73.9552 42.9644C76.8227 41.8221 79.3172 40.1018 81.3769 37.8407C85.0996 33.7535 86.8796 28.5355 87.717 24.8776C88.0206 23.5521 87.7067 22.1794 86.8558 21.1117C85.9968 20.0338 84.7141 19.4157 83.3365 19.4157H74.7735V16.077H83.3365C85.7362 16.077 87.9705 17.1536 89.4664 19.0309C90.9542 20.8981 91.5026 23.3007 90.9709 25.6225C90.2047 28.9687 89.0626 32.0515 87.5761 34.7855C87.2328 35.4166 87.4325 36.2281 88.0287 36.6285C88.709 37.0852 89.6612 36.8504 90.0518 36.1317C91.661 33.1722 92.8946 29.848 93.7179 26.2516C94.4424 23.0886 93.6961 19.8166 91.6706 17.2746ZM19.425 39.5827C17.6464 38.6518 16.065 37.4343 14.7064 35.9427C11.3955 32.3077 9.79196 27.5769 9.02972 24.2482C8.91887 23.7638 9.0348 23.2607 9.34781 22.8678C9.66909 22.4646 10.1484 22.2335 10.663 22.2335H19.2262V36.2675C19.2264 37.3894 19.2952 38.4953 19.425 39.5827ZM10.1549 40.0883C6.82174 36.4287 4.35748 31.4266 3.0286 25.6224C2.49689 23.3007 3.04532 20.8981 4.53315 19.0311C6.02907 17.1538 8.26336 16.0772 10.663 16.0772H19.2262V19.4155H10.6632C9.28562 19.4155 8.00295 20.0338 7.14396 21.1117C6.29304 22.1794 5.97909 23.5521 6.28271 24.8774C7.12028 28.5353 8.90009 33.7533 12.623 37.8405C14.6827 40.1018 17.1772 41.8219 20.0447 42.9642C20.3845 44.3314 20.8251 45.6592 21.3596 46.9387C16.9503 45.7133 13.1889 43.4191 10.1549 40.0883ZM53.9229 82.6995H40.0768C41.6558 79.9604 43.4008 74.5426 43.8393 63.86C44.877 63.9782 45.9312 64.041 46.9999 64.041C48.0685 64.041 49.1227 63.9782 50.1604 63.86C50.5991 74.5424 52.344 79.9604 53.9229 82.6995ZM46.9999 61.2227C33.2394 61.2227 22.0447 50.028 22.0447 36.2675V10.9674H29.0059C29.7841 10.9674 30.415 10.3365 30.415 9.55829C30.415 8.78008 29.7841 8.14918 29.0059 8.14918H18.3558C16.8862 8.14918 15.6905 6.9535 15.6905 5.4837C15.6905 4.0139 16.8862 2.81822 18.356 2.81822H75.6439C77.1135 2.81822 78.3094 4.0139 78.3094 5.4837C78.3094 6.95331 77.1137 8.14918 75.6439 8.14918H34.6425C33.8643 8.14918 33.2334 8.78008 33.2334 9.55829C33.2334 10.3365 33.8643 10.9674 34.6425 10.9674H71.9554V36.2675C71.9552 50.0278 60.7603 61.2227 46.9999 61.2227ZM83.3365 22.2335C83.8512 22.2335 84.3306 22.4646 84.6519 22.8678C84.9649 23.2607 85.081 23.7638 84.97 24.2484C84.2077 27.5769 82.6044 32.3077 79.2935 35.9427C77.9348 37.4343 76.3534 38.6518 74.5749 39.5827C74.7049 38.4953 74.7735 37.3894 74.7735 36.2675V22.2335H83.3365Z" fill="#226AE2"/>
<path d="M57.5181 27.6808L52.3275 26.9265C52.2328 26.9127 52.1511 26.8534 52.1088 26.7675L49.7875 22.0641C49.26 20.9952 48.192 20.3312 47.0001 20.3311C45.8084 20.3311 44.7401 20.995 44.2125 22.0639L41.8912 26.7675C41.849 26.8532 41.7672 26.9125 41.6725 26.9263L36.4819 27.6806C35.3024 27.852 34.3408 28.6627 33.9726 29.7962C33.6042 30.9298 33.9057 32.1509 34.7592 32.9828L38.5152 36.6441C38.5838 36.7108 38.615 36.807 38.5988 36.9011L37.712 42.0708C37.5106 43.2457 37.9844 44.4107 38.9488 45.1113C39.9132 45.8119 41.1675 45.9025 42.2225 45.3479L46.865 42.9071C46.9496 42.8626 47.0507 42.8626 47.1352 42.9071L51.7778 45.3479C52.8196 45.8954 54.0996 45.8029 55.0516 45.1111C56.016 44.4105 56.4898 43.2455 56.2882 42.0707L55.4016 36.9009C55.3855 36.8068 55.4167 36.7106 55.485 36.6439L59.2412 32.9826C60.0947 32.1505 60.3961 30.9295 60.0277 29.796C59.6592 28.6629 58.6974 27.8521 57.5181 27.6808ZM57.2737 30.965L53.5177 34.6262C52.785 35.3405 52.4508 36.3692 52.6238 37.3777L53.5104 42.5475C53.5506 42.7812 53.3007 42.9653 53.0892 42.8536L48.4464 40.4128C47.5487 39.9408 46.4511 39.9408 45.5534 40.4128L40.9107 42.8536C40.6993 42.9648 40.4492 42.7816 40.4895 42.5475L41.3763 37.3776C41.5491 36.369 41.2149 35.3405 40.4821 34.6262L36.7262 30.965C36.555 30.7981 36.652 30.5039 36.887 30.4697L42.0778 29.7154C43.0907 29.5683 43.9656 28.9325 44.4182 28.0148L46.7395 23.3112C46.8451 23.0972 47.1544 23.0969 47.2601 23.3112L49.5814 28.0147C50.0342 28.9323 50.9092 29.5681 51.9221 29.7152L57.1129 30.4695C57.3477 30.5039 57.445 30.7979 57.2737 30.965Z" fill="#226AE2"/>
</svg>
