<svg width="104" height="98" viewBox="0 0 104 98" fill="none" xmlns="http://www.w3.org/2000/svg">
<path d="M1.8198 47.3701L25.78 56.9229L35.0522 88.8275C35.6588 90.868 37.9985 91.6099 39.5149 90.2651L52.8599 78.6255C54.2464 77.4198 56.2394 77.327 57.7126 78.4864L81.8028 97.221C83.4492 98.5195 85.7889 97.5457 86.2222 95.4125L103.943 4.56787C104.377 2.20285 102.253 0.255188 100.174 1.13627L1.8198 41.7126C-0.606558 42.7328 -0.606558 46.3963 1.8198 47.3701ZM33.579 51.8219L80.4163 20.9375C81.2395 20.3811 82.1061 21.5868 81.4128 22.3287L42.7645 60.7719C41.4213 62.1167 40.5115 63.9253 40.2948 65.9193L38.995 76.3532C38.8217 77.7444 37.0019 77.8835 36.612 76.5387L31.5426 57.4794C30.936 55.3463 31.8026 53.0276 33.579 51.8219Z" fill="white"/>
</svg>
