<svg width="32" height="32" viewBox="0 0 32 32" fill="none" xmlns="http://www.w3.org/2000/svg">
<path d="M0.559928 15.4239L7.93231 18.1847L10.7853 27.4051C10.9719 27.9947 11.6918 28.2092 12.1584 27.8205L16.2646 24.4567C16.6912 24.1082 17.3044 24.0814 17.7577 24.4165L25.1701 29.8308C25.6767 30.206 26.3966 29.9246 26.5299 29.3081L31.9825 3.05415C32.1158 2.37066 31.4626 1.80779 30.8227 2.06242L0.559928 13.7889C-0.186643 14.0838 -0.186643 15.1425 0.559928 15.4239ZM10.332 16.7105L24.7435 7.78495C24.9968 7.62413 25.2634 7.97257 25.0501 8.187L13.1583 19.297C12.745 19.6857 12.4651 20.2083 12.3984 20.7846L11.9984 23.8C11.9451 24.202 11.3852 24.2422 11.2652 23.8536L9.70541 18.3455C9.51877 17.729 9.7854 17.0589 10.332 16.7105Z" fill="#DADADA"/>
</svg>
