<svg width="32" height="28" viewBox="0 0 32 28" fill="none" xmlns="http://www.w3.org/2000/svg">
<path fill-rule="evenodd" clip-rule="evenodd" d="M32 3.9464C30.8012 4.4795 29.5308 4.82862 28.2306 4.98226C29.6009 4.15515 30.627 2.84997 31.1166 1.31107C29.8264 2.08324 28.417 2.62914 26.9476 2.92578C24.9153 0.729878 21.6824 0.190405 19.0632 1.61012C16.4441 3.02983 15.0907 6.05528 15.7626 8.98857C10.4851 8.72356 5.56686 6.19855 2.23249 2.04226C1.6482 3.05401 1.34163 4.20588 1.3446 5.37832C1.33981 7.60618 2.43645 9.68821 4.26517 10.9232C3.22176 10.8926 2.20135 10.6051 1.29202 10.0854V10.1768C1.29499 13.3405 3.4927 16.0655 6.55023 16.6965C5.98708 16.8554 5.40556 16.9373 4.82103 16.9403C4.40655 16.9386 3.99313 16.8978 3.5861 16.8184C4.44643 19.5278 6.91046 21.3828 9.71718 21.4341C7.39159 23.2831 4.52076 24.2863 1.56545 24.2827C1.04232 24.2831 0.519616 24.2526 0 24.1913C5.74801 27.9202 13.0443 28.1732 19.0301 24.8512C25.016 21.5292 28.7382 15.1612 28.7384 8.24215C28.7384 7.95272 28.7384 7.66329 28.7189 7.3891C30.0025 6.44463 31.113 5.27946 32 3.9464Z" fill="#DADADA"/>
</svg>
